<svg id="5e895314-8091-4ddb-bfa5-dc8e4726e7e1" data-name="Layer 1" xmlns="http://www.w3.org/2000/svg" viewBox="0 0 28 28"><title>g</title><path d="M19.71,8.79c-.81-.19-1.57-.39-2.34-.56a42.4,42.4,0,0,0-6.28-.91,40.71,40.71,0,0,0-4.81,0,5.68,5.68,0,0,1-.59.05c-.34,0-.44.12-.41.45A21.05,21.05,0,0,0,8.7,18.23a18.14,18.14,0,0,0,5.05,4.86.45.45,0,0,0,.57,0,18.21,18.21,0,0,0,5.23-5.16c.25-.38.25-.38-.16-.56a26.84,26.84,0,0,0-7.56-2.13.62.62,0,0,1-.51-.35,15.64,15.64,0,0,1-1.43-3.63c-.11-.45-.08-.49.38-.45A35,35,0,0,1,16.91,12a34.07,34.07,0,0,1,7.94,3.48c.44.26.44.26.25.76a21.75,21.75,0,0,1-9.61,11c-.39.23-.8.44-1.19.67a.52.52,0,0,1-.55,0A22,22,0,0,1,2,13.22,30.87,30.87,0,0,1,1,6.46c0-.29,0-.58,0-.87s.06-.33.29-.34.46,0,.7,0a50.48,50.48,0,0,1,6.86.26,33,33,0,0,1,8.06,1.91,19.88,19.88,0,0,1,2.56,1.19A.42.42,0,0,1,19.71,8.79Z"/><path d="M19.71,8.79c-.81-.19-1.57-.39-2.34-.56a42.4,42.4,0,0,0-6.28-.91,40.71,40.71,0,0,0-4.81,0,5.68,5.68,0,0,1-.59.05c-.34,0-.44.12-.41.45A21.05,21.05,0,0,0,8.7,18.23a18.14,18.14,0,0,0,5.05,4.86.45.45,0,0,0,.57,0,18.21,18.21,0,0,0,5.23-5.16c.25-.38.25-.38-.16-.56a26.84,26.84,0,0,0-7.56-2.13.62.62,0,0,1-.51-.35,15.64,15.64,0,0,1-1.43-3.63c-.11-.45-.08-.49.38-.45A35,35,0,0,1,16.91,12a34.07,34.07,0,0,1,7.94,3.48c.44.26.44.26.25.76a21.75,21.75,0,0,1-9.61,11c-.39.23-.8.44-1.19.67a.52.52,0,0,1-.55,0A22,22,0,0,1,2,13.22,30.87,30.87,0,0,1,1,6.46c0-.29,0-.58,0-.87s.06-.33.29-.34.46,0,.7,0a50.48,50.48,0,0,1,6.86.26,33,33,0,0,1,8.06,1.91,19.88,19.88,0,0,1,2.56,1.19A.42.42,0,0,1,19.71,8.79Z" fill="#005087"/><path d="M1.5,2.65a24.44,24.44,0,0,1,3.82-1A47.26,47.26,0,0,1,11.93.87a45.91,45.91,0,0,1,14.67,1.7.46.46,0,0,1,.4.51,49.05,49.05,0,0,1-.28,6.13c0,.32-.17.27-.36.14a39,39,0,0,0-4-2.22,45.19,45.19,0,0,0-13.24-4,47.91,47.91,0,0,0-7.3-.48Z"/><path d="M1.5,2.65a24.44,24.44,0,0,1,3.82-1A47.26,47.26,0,0,1,11.93.87a45.91,45.91,0,0,1,14.67,1.7.46.46,0,0,1,.4.51,49.05,49.05,0,0,1-.28,6.13c0,.32-.17.27-.36.14a39,39,0,0,0-4-2.22,45.19,45.19,0,0,0-13.24-4,47.91,47.91,0,0,0-7.3-.48Z" fill="#e6001d"/></svg>