<svg id="92badee1-359d-4741-8979-64a1c0b21c77" data-name="Layer 1" xmlns="http://www.w3.org/2000/svg" viewBox="0 0 200 60"><title>garslogo</title><path id="e930f451-b7a6-4a53-ab9e-6db02d324055" data-name="0" d="M172.15,57.55V54.28a1.46,1.46,0,0,1,2.91,0v3.27a1.46,1.46,0,0,1-2.91,0Zm2,0V54.28a.55.55,0,1,0-1.1,0v3.27a.55.55,0,1,0,1.1,0Z" fill="#e6001d"/><path id="3a631069-2f37-4604-8ccb-87acd43e1b72" data-name="9" d="M169.54,54.27v3.29a1.43,1.43,0,1,1-2.85,0v-.2h.87v.24a.51.51,0,0,0,.54.54.5.5,0,0,0,.53-.54V56.23a1,1,0,0,1-.88.43,1.08,1.08,0,0,1-1.11-1.23V54.27a1.45,1.45,0,0,1,2.9,0Zm-2,0V55.3c0,.37.19.54.5.54a.55.55,0,0,0,.58-.6v-1a.54.54,0,1,0-1.08,0Z" fill="#e6001d"/><path id="ed8fa9ff-d4e4-49ad-9b84-5893b1a1a90e" data-name="9" d="M164.2,54.27v3.29a1.43,1.43,0,1,1-2.85,0v-.2h.87v.24a.51.51,0,0,0,.54.54.5.5,0,0,0,.53-.54V56.23a1,1,0,0,1-.88.43,1.08,1.08,0,0,1-1.11-1.23V54.27a1.45,1.45,0,0,1,2.9,0Zm-2,0V55.3c0,.37.19.54.5.54a.55.55,0,0,0,.58-.6v-1a.54.54,0,1,0-1.08,0Z" fill="#e6001d"/><path id="d67a198a-8f44-4daa-84a1-aeca6170b4b6" data-name="1" d="M158,54.21h-1v-.63a1.53,1.53,0,0,0,1.3-.66h.63v6H158Z" fill="#e6001d"/><path id="71752bd6-de45-4b29-871c-bb5e004dacdf" data-name="E" d="M149.53,52.92h2.58v.86h-1.67v1.67h1.33v.86h-1.33v1.76h1.67v.86h-2.58Z" fill="#005087"/><path id="265db179-17e9-4f37-a97f-d115136a1e9d" data-name="C" d="M145,57.58V54.25a1.42,1.42,0,0,1,2.85,0V55h-.89v-.7a.52.52,0,1,0-1,0v3.33a.52.52,0,1,0,1,0v-.86h.89v.86a1.42,1.42,0,0,1-2.85,0Z" fill="#005087"/><path id="cf17ed60-420a-4c6e-8b99-7fd53b42823b" data-name="N" d="M140.17,52.92h1l1.16,4v-4h.89v6h-1l-1.2-3.84v3.84h-.89Z" fill="#005087"/><path id="e5d25dc8-dfcb-4c12-8018-afbfcbce4035" data-name="I" d="M137.41,52.92h.91v6h-.91Z" fill="#005087"/><path id="9563342f-b2b5-4cd4-8c43-24e70744f5b8" data-name="S" d="M132.85,57.53v-.21l.87-.09v.22c0,.44.22.7.58.7a.54.54,0,0,0,.58-.57c0-.38-.15-.65-.83-1.29-.9-.85-1.16-1.31-1.16-2a1.38,1.38,0,1,1,2.76,0v.15l-.87.09v-.17c0-.46-.18-.7-.5-.7s-.5.2-.5.57.19.65.83,1.29c.87.87,1.16,1.31,1.16,2a1.47,1.47,0,1,1-2.93,0Z" fill="#005087"/><path id="c4eff4d2-1df8-45a9-ba8d-1b765b109d4c" data-name="S" d="M169.29,17.79V11.9a18.58,18.58,0,0,0-.09-2,2.37,2.37,0,0,0-.39-1.17,1.58,1.58,0,0,0-.9-.54A6.69,6.69,0,0,0,166.34,8a6.61,6.61,0,0,0-1.59.15,1.56,1.56,0,0,0-.87.54,2.37,2.37,0,0,0-.39,1.17,18.44,18.44,0,0,0-.09,2v4.69a7.79,7.79,0,0,0,.12,1.5,2.44,2.44,0,0,0,.51,1.08,4.75,4.75,0,0,0,1.14,1,23.28,23.28,0,0,0,2.07,1.14q3.12,1.62,4.93,2.77a10.38,10.38,0,0,1,2.7,2.31A5.81,5.81,0,0,1,176,29a24.65,24.65,0,0,1,.24,3.82v7.63a28.51,28.51,0,0,1-.39,5.29,5.63,5.63,0,0,1-1.47,3,5.57,5.57,0,0,1-3,1.38,31.12,31.12,0,0,1-5,.33,28,28,0,0,1-4.75-.33,5.48,5.48,0,0,1-2.95-1.38,5.78,5.78,0,0,1-1.5-3,26.48,26.48,0,0,1-.42-5.29V31h6.73v9.44a17.73,17.73,0,0,0,.09,2,2.51,2.51,0,0,0,.39,1.17,1.49,1.49,0,0,0,.87.57,6.24,6.24,0,0,0,1.53.15q1.92,0,2.43-.72a6.35,6.35,0,0,0,.51-3.19V33.3a17.9,17.9,0,0,0-.09-2,3.17,3.17,0,0,0-.48-1.38,4,4,0,0,0-1.17-1.11q-.78-.51-2.1-1.23-3.13-1.62-4.9-2.77a10.52,10.52,0,0,1-2.67-2.31,5.77,5.77,0,0,1-1.14-2.58,21,21,0,0,1-.24-3.46V11.9a28.48,28.48,0,0,1,.39-5.29,5.8,5.8,0,0,1,1.47-3.07,5.42,5.42,0,0,1,3-1.41,30.56,30.56,0,0,1,5-.33,29.55,29.55,0,0,1,4.9.33,5.24,5.24,0,0,1,2.95,1.41,6,6,0,0,1,1.44,3.07A28.56,28.56,0,0,1,176,11.9v5.89Z" fill="#e6001d"/><path id="a107c34f-02f4-4c07-8fd9-e696e7b9184d" data-name="R" d="M145.24,26.45h-3.13q-1.8,0-2.28.75a5.31,5.31,0,0,0-.48,2.67v20h-7V31a14.41,14.41,0,0,1,.3-3.25,6,6,0,0,1,.87-2.07,3.68,3.68,0,0,1,1.35-1.2,8.55,8.55,0,0,1,1.74-.63v-.24a9.21,9.21,0,0,1-1.47-.51A4,4,0,0,1,133.79,22a5.47,5.47,0,0,1-1-1.89,9.8,9.8,0,0,1-.39-3v-5a25.82,25.82,0,0,1,.39-5,5.45,5.45,0,0,1,1.5-2.95,5.72,5.72,0,0,1,3-1.38,30.57,30.57,0,0,1,5-.33h9.86V49.89h-6.91Zm0-18H142.3a6.69,6.69,0,0,0-1.56.15,1.52,1.52,0,0,0-.9.57,2.44,2.44,0,0,0-.39,1.11,14.84,14.84,0,0,0-.09,1.83v5.83a3.92,3.92,0,0,0,.54,2.4,2.83,2.83,0,0,0,2.22.66h3.13Z" fill="#005087"/><path id="9b1c673f-cb4c-4835-b6e2-63d806ecf176" data-name="A" d="M120.48,49.89V39.31h-5.83V49.89h-6.73V11.78a28,28,0,0,1,.39-5.26,5.61,5.61,0,0,1,1.47-3,5.51,5.51,0,0,1,3-1.38,29.08,29.08,0,0,1,4.84-.33,26.65,26.65,0,0,1,4.84.36,5.73,5.73,0,0,1,3,1.44,5.83,5.83,0,0,1,1.53,3,25.37,25.37,0,0,1,.42,5.14V49.89ZM117.53,8a6,6,0,0,0-1.47.15,1.72,1.72,0,0,0-.9.54,2.14,2.14,0,0,0-.42,1.14,17.08,17.08,0,0,0-.09,2V33.66h5.83V11.78a12.88,12.88,0,0,0-.12-2,2.53,2.53,0,0,0-.42-1.14,1.58,1.58,0,0,0-.9-.54A6.37,6.37,0,0,0,117.53,8Z" fill="#005087"/><path id="1600ba21-521a-4afa-9db8-e78b8be68ccd" data-name="G" d="M96.56,16.11V11.78a17.06,17.06,0,0,0-.09-2A2.14,2.14,0,0,0,96,8.68a1.72,1.72,0,0,0-.9-.54A6,6,0,0,0,93.67,8a6.29,6.29,0,0,0-1.53.15,1.64,1.64,0,0,0-.9.57,2.31,2.31,0,0,0-.42,1.17,16.35,16.35,0,0,0-.09,1.89V40.45a17,17,0,0,0,.09,2,2.31,2.31,0,0,0,.42,1.17,1.8,1.8,0,0,0,.9.6,5.26,5.26,0,0,0,1.53.18q1.2,0,2-.06a5,5,0,0,0,1.11-.18V22.3h6.49V49.89a32.22,32.22,0,0,1-3.22.39q-2.38.21-6.34.21a25.9,25.9,0,0,1-5-.39,5.62,5.62,0,0,1-3-1.5,6,6,0,0,1-1.47-3.07,26.74,26.74,0,0,1-.39-5.08V11.78a26.12,26.12,0,0,1,.42-5.23,5.67,5.67,0,0,1,1.53-3,5.71,5.71,0,0,1,3-1.38,29.64,29.64,0,0,1,4.87-.33,28.08,28.08,0,0,1,4.75.33,5.49,5.49,0,0,1,2.95,1.38,5.61,5.61,0,0,1,1.47,3,28,28,0,0,1,.39,5.26v4.33Z" fill="#005087"/><path d="M76.32,7.69c.07,3.28.1,6.55.13,9.83l0,9.83,0,9.83,0,4.91L76.32,47l-.08-4.91,0-4.91,0-9.83,0-9.83C76.22,14.24,76.25,11,76.32,7.69Z" fill="#005087"/><path d="M57.08,15.86c-1.44-.35-2.8-.69-4.17-1a75.65,75.65,0,0,0-11.2-1.62,72.63,72.63,0,0,0-8.58-.09,10.13,10.13,0,0,1-1.05.09c-.61,0-.79.21-.74.81.57,6.7,2.22,13,6.09,18.66a32.37,32.37,0,0,0,9,8.67.8.8,0,0,0,1,0,32.48,32.48,0,0,0,9.34-9.21c.44-.67.44-.68-.28-1A47.89,47.89,0,0,0,43,27.36a1.1,1.1,0,0,1-.91-.63,27.91,27.91,0,0,1-2.55-6.47c-.2-.8-.14-.88.67-.8a62.47,62.47,0,0,1,11.85,2.21,60.79,60.79,0,0,1,14.16,6.21c.79.47.79.47.44,1.35A38.8,38.8,0,0,1,49.54,48.81c-.7.41-1.42.78-2.12,1.19a.92.92,0,0,1-1,0c-10.86-5.65-18-14.27-21-26.21a55.08,55.08,0,0,1-1.64-12.06c0-.52-.06-1-.09-1.55,0-.37.1-.59.52-.6s.83-.08,1.24-.09a90.06,90.06,0,0,1,12.25.47,58.92,58.92,0,0,1,14.38,3.4,35.48,35.48,0,0,1,4.57,2.13A.75.75,0,0,1,57.08,15.86Z"/><path d="M57.08,15.86c-1.44-.35-2.8-.69-4.17-1a75.65,75.65,0,0,0-11.2-1.62,72.63,72.63,0,0,0-8.58-.09,10.13,10.13,0,0,1-1.05.09c-.61,0-.79.21-.74.81.57,6.7,2.22,13,6.09,18.66a32.37,32.37,0,0,0,9,8.67.8.8,0,0,0,1,0,32.48,32.48,0,0,0,9.34-9.21c.44-.67.44-.68-.28-1A47.89,47.89,0,0,0,43,27.36a1.1,1.1,0,0,1-.91-.63,27.91,27.91,0,0,1-2.55-6.47c-.2-.8-.14-.88.67-.8a62.47,62.47,0,0,1,11.85,2.21,60.79,60.79,0,0,1,14.16,6.21c.79.47.79.47.44,1.35A38.8,38.8,0,0,1,49.54,48.81c-.7.41-1.42.78-2.12,1.19a.92.92,0,0,1-1,0c-10.86-5.65-18-14.27-21-26.21a55.08,55.08,0,0,1-1.64-12.06c0-.52-.06-1-.09-1.55,0-.37.1-.59.52-.6s.83-.08,1.24-.09a90.06,90.06,0,0,1,12.25.47,58.92,58.92,0,0,1,14.38,3.4,35.48,35.48,0,0,1,4.57,2.13A.75.75,0,0,1,57.08,15.86Z" fill="#005087"/><path d="M24.58,4.9a43.6,43.6,0,0,1,6.81-1.78A84.32,84.32,0,0,1,43.19,1.73a81.9,81.9,0,0,1,26.17,3,.82.82,0,0,1,.71.91,87.52,87.52,0,0,1-.49,10.94c-.06.56-.3.48-.65.26a69.5,69.5,0,0,0-7.13-4A80.63,80.63,0,0,0,38.16,5.76a85.48,85.48,0,0,0-13-.85Z"/><path d="M24.58,4.9a43.6,43.6,0,0,1,6.81-1.78A84.32,84.32,0,0,1,43.19,1.73a81.9,81.9,0,0,1,26.17,3,.82.82,0,0,1,.71.91,87.52,87.52,0,0,1-.49,10.94c-.06.56-.3.48-.65.26a69.5,69.5,0,0,0-7.13-4A80.63,80.63,0,0,0,38.16,5.76a85.48,85.48,0,0,0-13-.85Z" fill="#e6001d"/></svg>